<svg width="636" height="300" viewBox="0 0 636 300" fill="none" xmlns="http://www.w3.org/2000/svg">
<g clip-path="url(#clip0)">
<path d="M122.016 118H92V148.333H122.016V118Z" fill="#F25022"/>
<path d="M155.192 118H125.176V148.333H155.192V118Z" fill="#7FBA00"/>
<path d="M122.016 151.525H92V181.858H122.016V151.525Z" fill="#00A4EF"/>
<path d="M155.192 151.525H125.176V181.858H155.192V151.525Z" fill="#FFB900"/>
<path d="M212.507 169.442H206.439V145.329C206.439 143.354 206.558 140.937 206.798 138.079H206.696C206.318 139.707 205.984 140.877 205.692 141.587L194.687 169.442H190.47L179.44 141.795C179.131 140.981 178.805 139.742 178.463 138.079H178.36C178.497 139.569 178.565 142.003 178.565 145.381V169.442H172.908V132.181H181.522L191.216 156.996C191.953 158.901 192.434 160.322 192.656 161.257H192.785C193.419 159.3 193.933 157.844 194.328 156.892L204.201 132.181H212.507V169.442Z" fill="#737373"/>
<path d="M223.949 137.248C222.972 137.248 222.132 136.927 221.429 136.286C220.744 135.645 220.4 134.831 220.4 133.844C220.4 132.856 220.744 132.033 221.429 131.375C222.132 130.717 222.972 130.388 223.949 130.388C224.96 130.388 225.817 130.717 226.52 131.375C227.223 132.033 227.574 132.856 227.574 133.844C227.574 134.779 227.223 135.585 226.52 136.26C225.817 136.918 224.96 137.248 223.949 137.248ZM226.906 169.442H220.94V142.834H226.906V169.442Z" fill="#737373"/>
<path d="M253.57 168.22C251.462 169.45 248.968 170.065 246.087 170.065C242.179 170.065 239.025 168.835 236.625 166.375C234.225 163.898 233.026 160.693 233.026 156.761C233.026 152.378 234.311 148.862 236.882 146.212C239.47 143.544 242.925 142.21 247.245 142.21C249.644 142.21 251.761 142.634 253.596 143.483V149.096C251.761 147.71 249.808 147.017 247.733 147.017C245.213 147.017 243.148 147.883 241.536 149.615C239.925 151.33 239.119 153.582 239.119 156.371C239.119 159.126 239.873 161.3 241.382 162.893C242.907 164.487 244.948 165.284 247.502 165.284C249.644 165.284 251.667 164.513 253.57 162.971V168.22Z" fill="#737373"/>
<path d="M274.784 148.576C274.063 148.005 273.027 147.719 271.672 147.719C269.906 147.719 268.432 148.524 267.25 150.135C266.067 151.746 265.475 153.938 265.475 156.709V169.442H259.51V142.834H265.475V148.317H265.578C266.161 146.446 267.052 144.991 268.252 143.951C269.469 142.895 270.824 142.366 272.315 142.366C273.395 142.366 274.218 142.531 274.784 142.86V148.576Z" fill="#737373"/>
<path d="M290.211 170.065C286.148 170.065 282.9 168.826 280.466 166.349C278.048 163.855 276.841 160.555 276.841 156.449C276.841 151.98 278.1 148.489 280.62 145.978C283.157 143.466 286.569 142.21 290.854 142.21C294.968 142.21 298.173 143.431 300.47 145.874C302.768 148.316 303.916 151.703 303.916 156.034C303.916 160.278 302.673 163.682 300.188 166.245C297.72 168.792 294.394 170.065 290.211 170.065ZM290.494 147.017C288.163 147.017 286.32 147.84 284.965 149.486C283.611 151.131 282.934 153.4 282.934 156.293C282.934 159.082 283.62 161.282 284.992 162.893C286.363 164.487 288.197 165.284 290.494 165.284C292.842 165.284 294.643 164.496 295.893 162.919C297.162 161.343 297.796 159.1 297.796 156.189C297.796 153.262 297.162 151.001 295.893 149.408C294.643 147.814 292.842 147.017 290.494 147.017Z" fill="#737373"/>
<path d="M308.364 168.61V163.023C310.593 164.738 313.053 165.596 315.744 165.596C319.344 165.596 321.144 164.522 321.144 162.374C321.144 161.767 320.989 161.256 320.681 160.841C320.372 160.408 319.953 160.026 319.421 159.697C318.907 159.368 318.29 159.074 317.57 158.814C316.867 158.554 316.079 158.26 315.204 157.93C314.124 157.497 313.147 157.038 312.273 156.553C311.416 156.068 310.696 155.522 310.113 154.916C309.547 154.293 309.119 153.591 308.827 152.811C308.536 152.032 308.39 151.123 308.39 150.083C308.39 148.801 308.691 147.675 309.29 146.705C309.89 145.718 310.696 144.895 311.707 144.237C312.718 143.561 313.867 143.059 315.153 142.73C316.439 142.383 317.766 142.21 319.138 142.21C321.572 142.21 323.75 142.582 325.669 143.327V148.602C323.818 147.32 321.692 146.679 319.293 146.679C318.538 146.679 317.853 146.757 317.236 146.913C316.635 147.069 316.121 147.285 315.693 147.563C315.264 147.84 314.93 148.178 314.69 148.576C314.45 148.957 314.33 149.382 314.33 149.849C314.33 150.421 314.45 150.906 314.69 151.304C314.93 151.703 315.281 152.058 315.744 152.37C316.224 152.664 316.79 152.941 317.441 153.201C318.11 153.444 318.872 153.712 319.73 154.007C320.861 154.474 321.872 154.951 322.764 155.436C323.672 155.921 324.444 156.475 325.077 157.099C325.712 157.705 326.201 158.415 326.543 159.23C326.886 160.026 327.058 160.979 327.058 162.088C327.058 163.439 326.749 164.617 326.132 165.622C325.515 166.626 324.692 167.458 323.664 168.116C322.635 168.774 321.444 169.259 320.09 169.571C318.752 169.9 317.338 170.065 315.847 170.065C312.967 170.065 310.473 169.58 308.364 168.61Z" fill="#737373"/>
<path d="M344.414 170.065C340.352 170.065 337.103 168.826 334.669 166.349C332.252 163.855 331.043 160.555 331.043 156.449C331.043 151.98 332.303 148.489 334.823 145.978C337.36 143.466 340.771 142.21 345.057 142.21C349.171 142.21 352.377 143.431 354.673 145.874C356.97 148.316 358.119 151.703 358.119 156.034C358.119 160.278 356.876 163.682 354.391 166.245C351.922 168.792 348.596 170.065 344.414 170.065ZM344.697 147.017C342.366 147.017 340.523 147.84 339.168 149.486C337.814 151.131 337.138 153.4 337.138 156.293C337.138 159.082 337.823 161.282 339.194 162.893C340.566 164.487 342.4 165.284 344.697 165.284C347.046 165.284 348.846 164.496 350.096 162.919C351.365 161.343 351.999 159.1 351.999 156.189C351.999 153.262 351.365 151.001 350.096 149.408C348.846 147.814 347.046 147.017 344.697 147.017Z" fill="#737373"/>
<path d="M378.227 134.961C377.421 134.493 376.504 134.259 375.475 134.259C372.579 134.259 371.13 135.914 371.13 139.222V142.834H377.25V147.563H371.155V169.442H365.19V147.563H360.691V142.834H365.19V138.521C365.19 135.714 366.099 133.506 367.916 131.895C369.732 130.266 372.004 129.452 374.73 129.452C376.203 129.452 377.37 129.617 378.227 129.946V134.961Z" fill="#737373"/>
<path d="M396.354 169.156C395.189 169.745 393.654 170.04 391.752 170.04C386.644 170.04 384.09 167.563 384.09 162.608V147.563H379.692V142.834H384.09V136.676L390.055 134.961V142.834H396.354V147.563H390.055V160.867C390.055 162.444 390.338 163.57 390.903 164.245C391.469 164.921 392.412 165.259 393.732 165.259C394.743 165.259 395.618 164.964 396.354 164.375V169.156Z" fill="#737373"/>
<path d="M437.084 169.442H416.668V132.181H422.788V164.219H437.084V169.442Z" fill="#737373"/>
<path d="M464.057 157.774H446.109C446.178 160.234 446.924 162.131 448.346 163.465C449.786 164.799 451.757 165.466 454.26 165.466C457.071 165.466 459.652 164.617 461.999 162.919V167.778C459.6 169.303 456.429 170.065 452.485 170.065C448.611 170.065 445.569 168.861 443.358 166.453C441.163 164.028 440.066 160.624 440.066 156.241C440.066 152.101 441.275 148.732 443.692 146.134C446.126 143.518 449.143 142.21 452.743 142.21C456.343 142.21 459.129 143.379 461.1 145.718C463.071 148.056 464.057 151.304 464.057 155.462V157.774ZM458.297 153.513C458.28 151.348 457.774 149.667 456.78 148.472C455.786 147.259 454.415 146.653 452.666 146.653C450.951 146.653 449.494 147.285 448.295 148.55C447.111 149.815 446.383 151.469 446.109 153.513H458.297Z" fill="#737373"/>
<path d="M489.95 169.441H484.164V165.284H484.061C482.244 168.471 479.579 170.065 476.065 170.065C473.476 170.065 471.445 169.355 469.97 167.934C468.513 166.514 467.785 164.634 467.785 162.296C467.785 157.272 470.648 154.345 476.373 153.513L484.19 152.396C484.19 148.602 482.407 146.705 478.842 146.705C475.705 146.705 472.876 147.797 470.356 149.979V144.704C473.133 143.041 476.339 142.21 479.973 142.21C486.624 142.21 489.95 145.519 489.95 152.136V169.441ZM484.19 156.371L478.662 157.151C476.948 157.376 475.653 157.8 474.779 158.424C473.922 159.03 473.493 160.104 473.493 161.646C473.493 162.772 473.887 163.699 474.676 164.426C475.482 165.137 476.553 165.492 477.89 165.492C479.707 165.492 481.207 164.851 482.39 163.569C483.59 162.27 484.19 160.641 484.19 158.684V156.371Z" fill="#737373"/>
<path d="M512.526 148.576C511.805 148.005 510.769 147.719 509.415 147.719C507.649 147.719 506.174 148.524 504.992 150.135C503.809 151.746 503.217 153.938 503.217 156.709V169.442H497.252V142.834H503.217V148.317H503.32C503.903 146.446 504.795 144.991 505.994 143.951C507.212 142.895 508.566 142.366 510.057 142.366C511.138 142.366 511.96 142.531 512.526 142.86V148.576Z" fill="#737373"/>
<path d="M540.193 169.441H534.227V154.448C534.227 149.477 532.488 146.991 529.008 146.991C527.191 146.991 525.691 147.684 524.508 149.07C523.325 150.438 522.734 152.171 522.734 154.267V169.441H516.742V142.834H522.734V147.251H522.837C524.808 143.89 527.653 142.21 531.373 142.21C534.236 142.21 536.421 143.154 537.93 145.042C539.439 146.913 540.193 149.624 540.193 153.175V169.441Z" fill="#737373"/>
</g>
<defs>
<clipPath id="clip0">
<rect width="452" height="63.8587" fill="white" transform="translate(92 118)"/>
</clipPath>
</defs>
</svg>
